<?xml version="1.0" encoding="utf-8"?>
<!-- Generator: Adobe Illustrator 22.0.1, SVG Export Plug-In . SVG Version: 6.00 Build 0)  -->
<svg version="1.1" id="Capa_1" xmlns="http://www.w3.org/2000/svg" xmlns:xlink="http://www.w3.org/1999/xlink" x="0px" y="0px"
	 viewBox="0 0 19.607 24" style="enable-background:new 0 0 19.607 24;" xml:space="preserve">
<style type="text/css">
	.st0{fill:#BABABA;}
	.st1{fill:#231F20;}
</style>
<path class="st0" d="M19.592,7.219V7.215l0,0l0,0c0-0.014-0.006-0.026-0.008-0.039c-0.004-0.03-0.006-0.06-0.018-0.089
	c-0.013-0.032-0.033-0.059-0.055-0.085c-0.006-0.008-0.009-0.017-0.016-0.025l-0.002-0.003c-0.001-0.001-0.002-0.002-0.003-0.003
	l-5.451-5.599l-0.001-0.001C13.977,1.309,13.893,1.27,13.8,1.269h-0.001c-0.002,0-0.003-0.001-0.005-0.001H2.947
	c-0.942,0-1.708,0.766-1.708,1.708v19.331c0,0.942,0.767,1.708,1.708,1.708h14.937c0.942,0,1.708-0.766,1.708-1.707V7.221
	C19.592,7.22,19.592,7.219,19.592,7.219z"/>
<path d="M18.354,5.951V5.947l0,0l0,0c0-0.014-0.006-0.026-0.008-0.039c-0.004-0.03-0.006-0.06-0.018-0.089
	c-0.013-0.032-0.033-0.059-0.055-0.085c-0.006-0.008-0.009-0.017-0.016-0.025l-0.002-0.003c-0.001-0.001-0.002-0.002-0.003-0.003
	l-5.451-5.599L12.8,0.103c-0.061-0.062-0.145-0.101-0.238-0.102h-0.001C12.559,0.001,12.557,0,12.556,0H1.708
	C0.767,0,0,0.766,0,1.708v19.331c0,0.942,0.767,1.708,1.708,1.708h14.937c0.942,0,1.708-0.766,1.708-1.707V5.953
	C18.354,5.952,18.354,5.952,18.354,5.951z M12.897,1.183l4.305,4.422h-4.305C12.897,5.605,12.897,1.183,12.897,1.183z
	 M16.646,22.064H1.708c-0.565,0-1.025-0.46-1.025-1.025V1.708c0-0.565,0.46-1.025,1.025-1.025h10.506v5.264
	c0,0.189,0.153,0.342,0.342,0.342h5.115v14.75C17.67,21.604,17.211,22.064,16.646,22.064z"/>
<g>
	<path class="st1" d="M7.064,14.959c0,0.905-0.576,1.566-1.542,1.566c-0.896,0-1.537-0.536-1.537-1.526h0.651
		c0,0.601,0.29,0.905,0.886,0.905c0.601,0,0.881-0.415,0.881-0.945v-1.392H5.347v-0.616c0.571,0,1.141,0,1.717,0V14.959z"/>
	<path class="st1" d="M9.383,15.424H8.392v1.031H7.731v-3.504c0.551,0,1.101-0.005,1.652-0.005
		C11.095,12.946,11.1,15.424,9.383,15.424z M8.392,14.818h0.991c0.846,0,0.841-1.241,0-1.241H8.392V14.818z"/>
	<path class="st1" d="M13.764,13.808c-0.235-0.226-0.585-0.351-0.891-0.351c-0.751,0-1.206,0.57-1.206,1.291
		c0,0.576,0.335,1.172,1.206,1.172c0.275,0,0.516-0.061,0.791-0.28v-0.621h-0.896v-0.591h1.502v1.477
		c-0.346,0.396-0.781,0.631-1.396,0.631c-1.316,0-1.852-0.866-1.852-1.787c0-0.985,0.615-1.896,1.852-1.896
		c0.471,0,0.941,0.18,1.302,0.535L13.764,13.808z"/>
</g>
</svg>
