<svg version="1.1" id="Capa_1" xmlns="http://www.w3.org/2000/svg" x="0" y="0" viewBox="0 0 19.607 24" xml:space="preserve"><path d="M19.592 7.219v-.004c0-.014-.006-.026-.008-.039-.004-.03-.006-.06-.018-.089a.318.318 0 0 0-.055-.085c-.006-.008-.009-.017-.016-.025l-.002-.003-.003-.003-5.451-5.599-.001-.001a.338.338 0 0 0-.238-.102h-.001l-.005-.001H2.947a1.71 1.71 0 0 0-1.708 1.708v19.331a1.71 1.71 0 0 0 1.708 1.708h14.937a1.71 1.71 0 0 0 1.708-1.707V7.219z" fill="#bababa"/><path d="M18.354 5.951v-.004c0-.014-.006-.026-.008-.039-.004-.03-.006-.06-.018-.089a.318.318 0 0 0-.055-.085c-.006-.008-.009-.017-.016-.025l-.002-.003-.003-.003L12.801.104 12.8.103a.338.338 0 0 0-.238-.102h-.001L12.556 0H1.708A1.71 1.71 0 0 0 0 1.708v19.331a1.71 1.71 0 0 0 1.708 1.708h14.937a1.71 1.71 0 0 0 1.708-1.707V5.953l.001-.002zm-5.457-4.768l4.305 4.422h-4.305V1.183zm3.749 20.881H1.708c-.565 0-1.025-.46-1.025-1.025V1.708c0-.565.46-1.025 1.025-1.025h10.506v5.264c0 .189.153.342.342.342h5.115v14.75a1.027 1.027 0 0 1-1.025 1.025z"/><path d="M5.721 15.416H4.73v1.03h-.66v-3.503c.551 0 1.101-.005 1.651-.005 1.712 0 1.717 2.478 0 2.478zm-.991-.606h.991c.846 0 .841-1.241 0-1.241H4.73v1.241zm5.072-1.872h.66v3.508h-.41v.005L8.21 14.084v2.362h-.661v-3.503h.536l1.717 2.172v-2.177zm3.916.861a1.345 1.345 0 0 0-.891-.351c-.751 0-1.206.571-1.206 1.292 0 .575.335 1.171 1.206 1.171.275 0 .516-.061.791-.28v-.621h-.896v-.59h1.502v1.477c-.346.395-.781.63-1.396.63-1.316 0-1.852-.865-1.852-1.786 0-.986.616-1.897 1.852-1.897.471 0 .94.181 1.301.536l-.411.419z"/></svg>