<svg version="1.1" id="Capa_1" xmlns="http://www.w3.org/2000/svg" x="0" y="0" viewBox="0 0 19.607 24" xml:space="preserve"><path d="M19.592 7.219v-.004c0-.014-.006-.026-.008-.039-.004-.03-.006-.06-.018-.089a.318.318 0 0 0-.055-.085c-.006-.008-.009-.017-.016-.025l-.002-.003-.003-.003-5.451-5.599-.001-.001a.338.338 0 0 0-.238-.102h-.001l-.005-.001H2.947a1.71 1.71 0 0 0-1.708 1.708v19.331a1.71 1.71 0 0 0 1.708 1.708h14.937a1.71 1.71 0 0 0 1.708-1.707V7.219z" fill="#bababa"/><path d="M18.354 5.951v-.004c0-.014-.006-.026-.008-.039-.004-.03-.006-.06-.018-.089a.318.318 0 0 0-.055-.085c-.006-.008-.009-.017-.016-.025l-.002-.003-.003-.003L12.801.104 12.8.103a.338.338 0 0 0-.238-.102h-.001L12.556 0H1.708A1.71 1.71 0 0 0 0 1.708v19.331a1.71 1.71 0 0 0 1.708 1.708h14.937a1.71 1.71 0 0 0 1.708-1.707V5.953l.001-.002zm-5.457-4.768l4.305 4.422h-4.305V1.183zm3.749 20.881H1.708c-.565 0-1.025-.46-1.025-1.025V1.708c0-.565.46-1.025 1.025-1.025h10.506v5.264c0 .189.153.342.342.342h5.115v14.75a1.027 1.027 0 0 1-1.025 1.025z"/><path d="M6.015 15.416h-.991v1.03h-.66v-3.503c.551 0 1.101-.005 1.651-.005 1.712 0 1.717 2.478 0 2.478zm-.991-.606h.991c.846 0 .841-1.241 0-1.241h-.991v1.241zm5.852-.145c.016.886-.525 1.781-1.752 1.781H7.748v-3.503h1.376c1.202 0 1.738.856 1.752 1.722zm-2.472 1.146h.721c.796 0 1.111-.58 1.097-1.15-.016-.546-.336-1.092-1.097-1.092h-.721v2.242zm3.059.635v-3.498h2.518v.636h-1.856v.956h1.756v.61h-1.756v1.296h-.662z"/></svg>